<svg xmlns="http://www.w3.org/2000/svg" viewBox="0 0 311.11 69.76"><defs><style>.cls-1{fill:#fff;}</style></defs><title>logo</title><g id="Layer_2" data-name="Layer 2"><g id="Layer_1-2" data-name="Layer 1"><path class="cls-1" d="M0,0V69.76H69.7V0ZM39.32,52.91A6.7,6.7,0,0,1,40,51.62c1-1,2-1.93,2.95-2.94a2.16,2.16,0,0,0,.59-1.3c0-6.83,0-13.65,0-20.48,0,0-.09-.1-.19-.22-1.61,4.07-3.21,8.09-4.79,12.13-1.72,4.36-3.41,8.74-5.17,13.09a1.94,1.94,0,0,1-1,1c-.74.28-1-.37-1.2-.91Q25.63,39.72,20,27.5c-.13-.28-.27-.55-.54-1.11-.05.6-.09.91-.09,1.22,0,5.47,0,11,0,16.43a3.78,3.78,0,0,0,.74,2.09c1.34,1.79,2.82,3.46,4.22,5.21a9.86,9.86,0,0,1,.8,1.49H10.9a5.75,5.75,0,0,1,.59-1.31c1.44-1.81,3-3.55,4.37-5.39a3.59,3.59,0,0,0,.71-2c0-6.75,0-13.5,0-20.25a3.34,3.34,0,0,0-.85-2.41c-1.31-1.47-2.54-3-3.76-4.55a3.18,3.18,0,0,1-.35-1,4.24,4.24,0,0,1,.95-.23c3.82,0,7.64,0,11.46,0a1.58,1.58,0,0,1,1.71,1.12C29,23.92,32.2,31,35.44,38.14c.06.13.16.26.31.5,1-2.39,1.91-4.7,2.84-7,2-5,4-10.07,6-15.12a1.16,1.16,0,0,1,1.29-.83c3.7,0,7.41,0,11.11,0A3.21,3.21,0,0,1,58,16a4.55,4.55,0,0,1-.53.94,14.49,14.49,0,0,1-2,1.91c-1.42,1-1.71,2.32-1.69,4,.08,8,.05,16,0,24a2.79,2.79,0,0,0,1,2.31c.92.82,1.79,1.7,2.64,2.6A5.75,5.75,0,0,1,58,52.91Z"/><path class="cls-1" d="M149,51.62c1,1,1.92,2.06,2.86,3.09H134.42c1-1.07,2.06-2.09,3-3.24a3.39,3.39,0,0,0,.77-1.89c.08-7.83.09-15.67.11-23.5a3.88,3.88,0,0,0-.17-.56c-4,10-7.89,19.78-11.93,29.87L113.25,26.61l-.28.09c0,4.28,0,8.55,0,12.83,0,1.77,0,3.55,0,5.32a5.92,5.92,0,0,0,1.26,3.87c1.49,1.91,2.92,3.87,4.48,6H105.16c1.46-2,2.78-3.83,4.23-5.61a7.12,7.12,0,0,0,1.48-4.84c-.07-6.67-.05-13.35,0-20a4.89,4.89,0,0,0-1-3.22c-1.14-1.44-2.22-2.92-3.49-4.6h2.06c3.24,0,6.49,0,9.73,0a1.58,1.58,0,0,1,1.72,1.12c3.21,7.18,6.48,14.33,9.73,21.5.12.26.26.52.53,1,.74-1.84,1.41-3.46,2.06-5.08,2.33-5.83,4.67-11.66,7-17.51a1.35,1.35,0,0,1,1.49-1.06c3.77,0,7.55,0,11.69,0-1.05,1.19-1.82,2.22-2.75,3.08a4.76,4.76,0,0,0-1.51,3.9c.07,8.68,0,17.36,0,26A2.82,2.82,0,0,0,149,51.62Z"/><path class="cls-1" d="M299.18,54.7v-4c0-4.7-.05-9.4-.11-14.1a6.19,6.19,0,0,0-.34-1.69c-.47-1.54-1.31-2.75-3.05-2.92a4.94,4.94,0,0,0-4.47,1.93,1.7,1.7,0,0,0-.19,1c.1,3.27.25,6.53.3,9.8,0,2.08-.13,4.16-.08,6.24a2.76,2.76,0,0,0,.81,1.56c.68.75,1.48,1.4,2.43,2.27H282.4c0-2.71,0-5.39,0-8.08,0-3.46-.12-6.93-.21-10.39a4.86,4.86,0,0,0-.29-1.35c-.46-1.54-1.27-2.76-3-2.93a4.42,4.42,0,0,0-4.11,1.89,2.28,2.28,0,0,0-.33,1.3c0,5.2,0,10.41,0,15.62a3,3,0,0,0,.75,1.69,31.67,31.67,0,0,0,2.39,2.31h-12c0-.4-.05-.78-.05-1.15,0-7,0-14,0-20.94a3.08,3.08,0,0,0-1-2.47c-.75-.7-1.4-1.5-2.24-2.42H274.4v4.77c2-3.46,4.71-5.33,8.68-5.26s6.42,2.34,7.59,6a34.21,34.21,0,0,1,2.7-3.46,9,9,0,0,1,10.88-1.25,8.39,8.39,0,0,1,3.57,6.48c.29,3.1.24,6.23.28,9.35,0,2-.09,4.09,0,6.13a3.34,3.34,0,0,0,.75,1.79,29.42,29.42,0,0,0,2.28,2.38Z"/><path class="cls-1" d="M210.41,52.64a3.2,3.2,0,0,1-1.2-2.81q.06-16.77,0-33.54V15l-11.77,1.39c0,.11-.09.21-.14.32.84.78,1.7,1.53,2.5,2.35a1.82,1.82,0,0,1,.58,1.06c0,3.65,0,7.3,0,11-1.5-2-3.25-3.49-5.75-3.69-4.45-.35-8.15,1.18-10.43,5.07-3.36,5.72-3.3,11.74-.41,17.59,3.25,6.61,13,7.14,16.28.46,0-.05.13-.05.35-.11v4.33h11.77l.2-.27C211.77,53.84,211.12,53.2,210.41,52.64Zm-10-4.47a2.64,2.64,0,0,1-.69,1.59,4.34,4.34,0,0,1-6.8-.7,11.05,11.05,0,0,1-1.66-5.59c-.23-3.36-.22-6.72,1.24-9.87,1.25-2.66,3.7-3.73,6.17-2.73a2.32,2.32,0,0,1,1.77,2.6v7.29C200.44,43.23,200.48,45.7,200.41,48.17Z"/><path class="cls-1" d="M249.5,54.71V49.93l-.24,0c-.14.23-.29.47-.42.71-2.39,4.23-7.54,5.89-11.51,3.67a8,8,0,0,1-4-6.7c-.32-3.56-.23-7.16-.31-10.74a11.07,11.07,0,0,1,0-2.08,6,6,0,0,0-2.62-6.38,3.81,3.81,0,0,1-.49-.55H241.9v3.41c0,4.55,0,9.11.13,13.65a12.58,12.58,0,0,0,.81,3.93,2.85,2.85,0,0,0,3.68,1.77,3.56,3.56,0,0,0,3-3.31c0-4.74,0-9.48,0-14.23a3.66,3.66,0,0,0-1.26-3.16c-.66-.57-1.2-1.26-2-2.16H258.3c0,.51.08,1,.08,1.4,0,7,0,14,0,21.06a2.67,2.67,0,0,0,1,2.31c.76.63,1.44,1.34,2.4,2.23Z"/><path class="cls-1" d="M163.86,40.18c4.59,0,9.18,0,13.76,0,.41,0,.82,0,1.24-.06.2-3.08-.11-5.92-1.85-8.41-2.12-3-5.26-4.11-8.78-4.38-6.23-.48-11.29,2.24-13.43,7.36A17.8,17.8,0,0,0,154,45.6a11.68,11.68,0,0,0,3.59,6.34,14.26,14.26,0,0,0,15.28,1.91c3.35-1.76,4.9-4.81,5.81-8.52-.82.94-1.45,1.77-2.19,2.49-3.52,3.45-11.76,3.75-13.42-4-.17-.79-.24-1.6-.36-2.4S162.9,40.17,163.86,40.18Zm-1.47-1.37c.44-2.67.76-5.1,1.28-7.48A4.64,4.64,0,0,1,165,29.12a2.72,2.72,0,0,1,4.48,1,22.84,22.84,0,0,1,1,4.58,19.6,19.6,0,0,1,.1,3.34c0,.27-.36.75-.56.76C167.67,38.83,165.25,38.81,162.39,38.81Z"/><path class="cls-1" d="M217.16,54.66V53.49c0-6.9,0-13.8,0-20.7A3.23,3.23,0,0,0,216,30l-2.16-1.72.33-.42h11.88v1.44c0,7,0,14,0,20.92a3.06,3.06,0,0,0,1.13,2.61,15.61,15.61,0,0,1,1.66,1.88Z"/><path class="cls-1" d="M226.39,19.41a4.82,4.82,0,1,1-4.81-4.84A4.74,4.74,0,0,1,226.39,19.41Z"/></g></g></svg>