<svg xmlns="http://www.w3.org/2000/svg" viewBox="0 0 547.98 114"><defs><style>.cls-1{fill:#fff;}</style></defs><title>Asset 1</title><g id="Layer_2" data-name="Layer 2"><g id="Layer_1-2" data-name="Layer 1"><path class="cls-1" d="M0,0V114H114V0ZM94.78,91.06H78.42V50.78l-15,40.28H50.2L35.08,50.69V91.06H18.72V23.9H38.05L56.89,70.4,75.55,23.9H94.78Z"/><path class="cls-1" d="M210.55,23.9,191.89,70.4,173.05,23.9H153.72V91.06h16.36V50.69L185.2,91.06h13.2l15-40.28V91.06h16.36V23.9Z"/><path class="cls-1" d="M291.87,63.51a28.17,28.17,0,0,0-3.39-14.06,23.33,23.33,0,0,0-9.43-9.28,28.54,28.54,0,0,0-13.78-3.26,28.85,28.85,0,0,0-14.06,3.35,23.52,23.52,0,0,0-9.52,9.57,29.89,29.89,0,0,0-3.4,14.54,29.47,29.47,0,0,0,3.45,14.54,23.77,23.77,0,0,0,9.57,9.57,28.62,28.62,0,0,0,14,3.35A28.2,28.2,0,0,0,277,89.44a24.07,24.07,0,0,0,13.59-16.08H273.22q-2.4,5.17-8.52,5.17a9.82,9.82,0,0,1-6.94-2.63,11.12,11.12,0,0,1-3.2-7.61h37A39.88,39.88,0,0,0,291.87,63.51ZM254.66,59.2a10.57,10.57,0,0,1,3.49-6.79A10.37,10.37,0,0,1,265.08,50a10.56,10.56,0,0,1,7.18,2.49,8.42,8.42,0,0,1,2.87,6.69Z"/><path class="cls-1" d="M337.22,20.27V45a17.63,17.63,0,0,0-6.84-5.93,21.1,21.1,0,0,0-9.62-2.2,22.09,22.09,0,0,0-11.95,3.35,23.09,23.09,0,0,0-8.47,9.57,31.91,31.91,0,0,0-3.11,14.44,32.26,32.26,0,0,0,3.11,14.5,23.35,23.35,0,0,0,8.47,9.66,21.8,21.8,0,0,0,11.95,3.4,20.57,20.57,0,0,0,9.91-2.3,16.7,16.7,0,0,0,6.55-6.12v7.65h16.36V20.27ZM333.82,74a11.4,11.4,0,0,1-16.55,0c-2.26-2.4-3.39-5.63-3.39-9.72S315,57,317.27,54.66a11.5,11.5,0,0,1,16.55.05q3.4,3.54,3.4,9.66T333.82,74Z"/><path class="cls-1" d="M365.44,37.68V91.06H381.8V37.68ZM380.61,17a9.83,9.83,0,0,0-6.94-2.53,10,10,0,0,0-7,2.53,8.35,8.35,0,0,0-2.73,6.37,8.21,8.21,0,0,0,2.73,6.26,9.92,9.92,0,0,0,7,2.54,9.8,9.8,0,0,0,6.94-2.54,8.23,8.23,0,0,0,2.72-6.26A8.38,8.38,0,0,0,380.61,17Z"/><path class="cls-1" d="M430,37.68v29c0,3.57-.93,6.34-2.77,8.32a9.84,9.84,0,0,1-7.56,3,9.69,9.69,0,0,1-7.46-3q-2.78-3-2.78-8.32v-29H393.19V68.87A26.92,26.92,0,0,0,395.77,81,18.43,18.43,0,0,0,403,88.91a21.1,21.1,0,0,0,10.81,2.73,20.54,20.54,0,0,0,9.43-2.16A18,18,0,0,0,430,83.79v7.27h16.36V37.68Z"/><path class="cls-1" d="M542.1,43.13q-5.88-6-15.83-6a20.41,20.41,0,0,0-10.43,2.78,21.53,21.53,0,0,0-7.56,7.17,18.54,18.54,0,0,0-7.41-7.36A22.05,22.05,0,0,0,490.1,37.1a20.57,20.57,0,0,0-9.09,2,17.54,17.54,0,0,0-6.5,5.31V37.68H458.15V91.06h16.36v-29q0-5.16,2.72-8a11.41,11.41,0,0,1,15,0q2.73,2.84,2.73,8v29h16.27v-29c0-3.44.9-6.1,2.72-8a11.41,11.41,0,0,1,15,0q2.73,2.84,2.73,8v29H548V59.87Q548,49.16,542.1,43.13Z"/></g></g></svg>